<svg id="Layer_1" data-name="Layer 1" xmlns="http://www.w3.org/2000/svg" viewBox="0 0 109.99 107.5"><defs><style>.cls-1{fill:#231f20;}.cls-2{fill:#fff;}</style></defs><title>ms-access</title><path class="cls-1" d="M57.5,1.24H65v10.9c12.07-1.54,24.7-1.42,36.28,2.68,4.37,1.48,9.12,4.88,8.69,10.08q.08,28.82,0,57.67c.44,5.26-4.44,8.63-8.85,10.11C89.5,96.53,77,97,65,95.28v13.46H57.19c-19-3.47-38.13-6.65-57.19-10V11.27C19.16,7.92,38.35,4.65,57.5,1.24Z" transform="translate(0 -1.24)"/><path class="cls-2" d="M65,15.94c11.17-1.54,22.79-1.49,33.64,1.83,3,1.11,7,2.45,7.67,6-.5,2.91-3.54,4.22-5.94,5.27C89,32.88,76.74,33.24,65,31.47Z" transform="translate(0 -1.24)"/><path class="cls-2" d="M90.57,35.39c5.5-.81,11.24-2,15.69-5.57-.27,5.37.43,10.81-.37,16.13-2.24,2.67-5.79,3.62-9,4.53A89.72,89.72,0,0,1,65,51.64V35.44A100.16,100.16,0,0,0,90.57,35.39ZM25.51,34.1l8.74-.63c4.19,14,8.16,28.07,12.3,42.08-2.89-.19-5.78-.4-8.64-.66q-1.15-4.69-2.4-9.36c-3.83,0-7.67-.13-11.5-.33-.73,3-1.48,5.91-2.25,8.87q-3.66-.28-7.32-.53C18.09,60.38,21.89,47.26,25.51,34.1Z" transform="translate(0 -1.24)"/><path class="cls-1" d="M25.58,58.45c1.26-5.85,3.13-11.56,4-17.5,1.13,5.93,2.86,11.7,4.29,17.55C31.08,58.49,28.33,58.48,25.58,58.45Z" transform="translate(0 -1.24)"/><path class="cls-2" d="M90.65,55.38c5.49-.81,11.19-2,15.61-5.56-.25,5.36.39,10.77-.35,16.1-2.19,2.67-5.73,3.62-8.92,4.53C86.53,72.94,75.6,73,65,71.65V55.44A99.88,99.88,0,0,0,90.65,55.38Zm-.05,20c5.5-.8,11.21-2,15.66-5.56-.26,5.36.42,10.8-.37,16.12-3.54,3.85-9.15,4.56-14,5.55a91.79,91.79,0,0,1-26.94.1c.08-5.39,0-10.76,0-16.15A99.42,99.42,0,0,0,90.6,75.38Z" transform="translate(0 -1.24)"/></svg>