<svg id="svg2830" xmlns="http://www.w3.org/2000/svg" viewBox="0 0 246.98 246.48"><defs><style>.cls-1{fill:#fff;}</style></defs><title>processing2</title><g id="layer2"><rect id="rect2862" class="cls-1" width="246.98" height="246.48" rx="35.86"/></g><g id="layer3"><path id="rect2887" d="M78.81,38.67V214.42H99.53V160.89H143a27.17,27.17,0,0,0,27.25-27.25V66A27.2,27.2,0,0,0,143,38.67ZM99.53,58.61h43.94a6,6,0,0,1,6.06,6.06v69.47a6,6,0,0,1-6.06,6.06H99.53V58.61Z" transform="translate(-4.04 -4.47)"/></g><g id="layer5"><path id="path3918" d="M152.36,184.25a16.25,16.25,0,1,0,16.25,16.25A16.26,16.26,0,0,0,152.36,184.25Zm-4.81,8.94,12.5,7.5-12.5,7.12Z" transform="translate(-4.04 -4.47)"/><path id="path3918-1" d="M188.08,184.25a16.25,16.25,0,1,0,16.25,16.25A16.25,16.25,0,0,0,188.08,184.25ZM182.55,195H194v11.44H182.55Z" transform="translate(-4.04 -4.47)"/></g></svg>