<svg xmlns="http://www.w3.org/2000/svg" xmlns:xlink="http://www.w3.org/1999/xlink" viewBox="0 0 780 643"><defs><style>.cls-1{isolation:isolate;}.cls-2,.cls-4{mix-blend-mode:screen;}.cls-3,.cls-6{fill:#fff;}.cls-3{stroke:#231f20;stroke-miterlimit:10;stroke-width:2px;}.cls-4{opacity:0.5;}.cls-5{opacity:0.89;mix-blend-mode:multiply;}.cls-6{font-size:505.25px;font-family:BillionDreams, Billion Dreams;}</style></defs><title>logo3</title><g class="cls-1"><g id="Layer_1" data-name="Layer 1"><image class="cls-2" width="634" height="643" transform="translate(85)" xlink:href="logo31.png"/><path class="cls-3" d="M631,316.48c-5.91.86-6.24,1-2,1.15,2,.05,4.53.24,5.72.38,5.34.86-3.53,1.76-15,1.57-3.67-.09-6.77-.24-6.91-.33s.1-.48.48-.72c1.24-.85-2.43.1-4.39,1.1a13,13,0,0,0-1.81,1.05c0,.05,2.91,0,6.44-.1,6.19-.19,6.43-.19,6.43.77,0,1.28-1.14,1.52-7.58,1.52-5.15,0-5.38.05-5.15,1s0,.95-4.86.95c-2.81,0-5.29.19-5.58.43-.57.57-7.86,2-10.15,2a7.78,7.78,0,0,1-2.91-.71c-2-1.1-4.1-.81-9.06,1.19A82.41,82.41,0,0,1,566,330.5c-2.15.57-4.39,1.14-4.91,1.29-.86.24-.91.19-.24-.58s.62-.81-.24-.57c-.52.15-2.34.62-4,1.05s-7.68,2.53-13.26,4.58c-10,3.76-14.44,4.86-15.06,3.86-.33-.57-2.14-.1-7.63,2a13.38,13.38,0,0,1-3.81,1.1c-.29-.14-2.81,1.38-5.67,3.29a58.9,58.9,0,0,1-5.44,3.53c-.19,0,.19-.53.81-1.2s1-1.19.86-1.19-2,1-4.15,2.15A30.32,30.32,0,0,1,498.9,352c-1.33,0-20.78,13.64-23.07,16.16l-.91,1,2.25-1a7.6,7.6,0,0,1,2.52-.76c.1.14-1.71,1.81-4.1,3.67a26.27,26.27,0,0,0-4.34,3.86c0,.72-2.86,1.91-3.81,1.62-2.72-.85,1.05-7,5.72-9.24,2.48-1.24,11.92-7.92,11.92-8.44s-2.77,1.24-7,4.29c-2.43,1.71-4.81,3.14-5.39,3.14a13.48,13.48,0,0,0-3.81,1.43,16.63,16.63,0,0,1-3.58,1.43c-1.19,0,.53-2.71,2.82-4.33,1.9-1.43,9.48-5.68,10.06-5.68.14,0,.19.43,0,.91-.24.86-.15.9,1.09.57,2.15-.62,4.25-1.86,9.82-5.62,6.06-4.1,8.39-5.39,9.92-5.39.62,0,3.91-1.57,7.34-3.48,6.53-3.58,8.63-4.91,8.25-5.29-.1-.15-3.2,1.47-6.82,3.57-6.29,3.63-7.86,4.25-6.48,2.58s-.29-1.2-5.77,1.62c-3.15,1.67-5.86,2.86-6,2.71-.38-.38-10.53,5-16.35,8.54-2.48,1.52-6.53,4.34-9.06,6.24-4.38,3.29-4.62,3.58-5.15,6-.33,1.34-1.47,4.91-2.57,8l-2,5.49L448.85,390c-9.73,8.06-16.31,13.93-23.5,21-3.87,3.81-7,6.72-7,6.43,0-1.14,4.29-6.91,8.34-11.15,4.29-4.53,6.53-6.53,6.15-5.48-.48,1.33,6.67-5.72,8.53-8.44a7,7,0,0,1,2.58-2.48c1.24-.33,6.58-5.58,7.53-7.44,1.19-2.29-.52-2.67-2.53-.57a13.06,13.06,0,0,1-3.91,2.43c-2.19.86-2.76,1.38-3.52,3-.53,1.19-4,5-9,10-4.53,4.43-8.25,8-8.35,7.87a18.2,18.2,0,0,1,2.05-3.63c2.34-3.57,6.82-8.29,8.39-8.77,1.1-.38,1.2-1,.15-1.38-.48-.19-1.67.62-3.44,2.38a32.93,32.93,0,0,1-3.9,3.39c-.67.38-2.67,2.95-4.53,5.67a102.75,102.75,0,0,1-6.77,8.92c-1.91,2.14-4.68,5.53-6.2,7.48s-5.77,6.67-9.49,10.49c-6.81,7-9.67,10.72-8.91,11.49s2.43-.91,7.34-7.25c2.67-3.43,4.91-6.1,5.05-6s-.33,1.15-1.09,2.2c-2.67,3.76-2.82,4-2.2,3.62.29-.19.58-.14.58.09,0,.91-2.82,4.25-5.68,6.73a21,21,0,0,0-3.95,4.52l-1,2,1.72-1.62c.95-.91,1.71-1.48,1.71-1.19a28,28,0,0,1-2.43,4.19c-2.52,4-5.19,9-5.19,9.82,0,1.24,1.14.24,2.76-2.43,3.2-5.29,6.34-10,6.72-10s.29.57.19,1.28c-.23,1.29-.19,1.29.43.39.38-.53,2.48-4,4.72-7.63,3.67-6.15,4-6.91,4.06-9.44.09-2.29.42-3.34,2.05-6,1.71-2.91,2.19-3.38,4.71-4.48,3.82-1.72,6.3-1.67,6.3.14,0,1-8.73,9.54-9.68,9.54s-7.63,14.59-7.58,16.25c0,1.1-.52,1.77-3,3.77-3.91,3.05-9.11,9.3-14.59,17.45-2.34,3.53-4.39,6.72-4.53,7.1a1.85,1.85,0,0,0,.67,1.58c.9.9.9.95-1.15,3.9a29.3,29.3,0,0,0-2.24,3.53c-.47,1.34-.71-.19-.28-2.05a7.52,7.52,0,0,0,.28-2.24c-.09-.09-2.24,4-4.81,9s-5,9.39-5.34,9.68c-.67.52-2.1,4.1-2.1,5.15,0,.28.76-.86,1.67-2.58,1.81-3.33,3.29-5.1,3.72-4.43.14.19-.76,2.86-2,5.86-3.1,7.54-5.3,13.92-6,17.55l-.58,3.1-2.33,0-2.39,0L356,520a77.81,77.81,0,0,1,1.38-14,6.26,6.26,0,0,0,.29-2.29c-.38-.33-6.58,15.59-9.25,23.74-3.1,9.44-4,9.49-2.1.1.57-2.62,1-5.48,1.15-6.39.19-1.81,4.81-13.16,5.76-14.16a15.15,15.15,0,0,0,1.67-3.77c.62-1.76,2.2-5.67,3.63-8.77a69,69,0,0,0,3.09-7.91,7.94,7.94,0,0,1,1.05-2.81c.48-.53.48-.43-.85,5.24-1,4.39-1.77,9.58-1.58,10.87.15.81.53.33,1.77-2.05a18.15,18.15,0,0,0,2-6.91c.62-5.91,1.52-8.34,4.62-12.54,3.91-5.29,5.1-7.63,2.67-5.34-.67.62-1.19.95-1.19.76,0-.43,2.52-4.14,4.53-6.72s2.52-3.57,1.09-2.29c-2.05,1.91-1.9,1.19.48-1.9,1.29-1.62,3.43-4.58,4.82-6.63a58,58,0,0,1,4.91-6.15c1.76-1.81,2.43-3,2.52-4.05a18.57,18.57,0,0,1,1.58-4.67l1.52-3.25-4.1,3.72c-5.43,5-7,6.87-11.73,15-10.1,17.21-14.3,25.22-18.73,35.8-1.29,3.1-2.58,5.49-2.81,5.39-.67-.24-4.68,8.68-7,15.54-2,6-2.53,9.58-3.24,22.17-.53,8.82-2,17.54-3.39,19.4-1,1.34-1.62,3.77-2.1,8-.33,2.53-.95,4.29-1.38,3.82a9.48,9.48,0,0,1,.19-3.06c.53-3,.05-4.19-1-2.86-.52.62-.62,2.1-.52,6.44.19,6.34-.67,13-1.57,12.63a1.2,1.2,0,0,0-1.1.29c-.53.52-.62.43-1.19-1.53-.1-.38-.48,1.2-.86,3.58-.86,5.58-.86,14.87.05,19.07a61.75,61.75,0,0,1,.66,8.82c0,4.57-.14,6-1.09,8.39s-1.05,3.62-.91,7.77c.05,2.67-.05,4.81-.24,4.81-.47,0,.15,10,.67,11,.33.57.38.47.43-.38,0-2.15.86-1,1.19,1.67.53,4.57,2.15,12.1,3,13.92l.81,1.71.28-3.57c.24-3.15.15-3.72-.76-5-1.05-1.48-1.1-1.91-1.86-13.82L333,633l.67,3.39c.57,3,2,6.72,2.43,6.29a28.24,28.24,0,0,0-.38-4.34c-.38-3.1-.38-4.53,0-5.72.62-1.76.28-21-.43-23.45-.29-1-.33,0-.19,3,.33,5.1-.38,6-1.15,1.43-.81-5-1.23-24.79-.52-26.5.76-1.91,1.34-1.91,1,0-.19,1.43.62,3,1.33,2.62a5.08,5.08,0,0,0,.72-2.29,12.19,12.19,0,0,1,.62-2.43c.09-.24,1,2,1.95,5l1.72,5.43-.05,10c-.05,7-.24,10.35-.62,11.11s-.47,2.24-.05,6.44c.34,3,.62,8.24.72,11.82s.33,6.86.62,7.39.57.62.57.28c0-1.33.95-.43.95,1a60,60,0,0,0,.72,6c.72,4.29.67,4.48-.24,5.38a3.27,3.27,0,0,0-.95,1.81,3.74,3.74,0,0,1-.67,1.82c-.67.85-.76.76-1.76-1.62a7.8,7.8,0,0,0-1.19-2.34,11.78,11.78,0,0,0,.52,2.95c.86,3.63.86,4.1.05,3.77-1.15-.43-1.34,1.43-.77,7.34.53,4.77.77,5.77,1.72,6.82s1.14,1.72,1.14,3.58a76.88,76.88,0,0,0,1.91,14.25,17.1,17.1,0,0,1,.72,3.48,48.28,48.28,0,0,1-3-5c-2.48-4.39-4.38-7.11-4.38-6.15,0,.14,1.09,3.1,2.43,6.58,1.76,4.76,2.38,6.91,2.29,8.53-.15,2.33.9,6.15,1.43,5.34s5.62,5.34,7.53,8.77c.86,1.57,1.57,2.43,1.57,2,0-1.57-2.38-8-4.1-11.06-2.81-5.05-1.76-4.43,1.43.86,1.67,2.77,4.39,6.91,6.06,9.25a43.87,43.87,0,0,1,4.29,7.53c1.62,4.15,4,12.54,3.62,12.92-.95,1-4.15-4.19-4.15-6.81,0-1.34-1.66-.43-1.9,1s-.34,1.29-1.15-1.19a11.63,11.63,0,0,0-1.76-3.57,56.73,56.73,0,0,1-4.05-6.44,64.81,64.81,0,0,0-4.29-6.91l-1.2-1.43.77,1.52c.76,1.62,2.29,8.25,1.95,8.58-.09.1-.76-.85-1.52-2.19-1.1-2.1-2.1-3.1-2.1-2.14,0,.66,6,11.15,6.34,11.15s.24-.43.09-1-.14-1,0-1c.29,0,4.44,8.54,5.15,10.59.19.47.1.86-.14.86a.48.48,0,0,1-.48-.48c0-.62-1.76-.62-2.19.05s2.48,3.62,3.86,3.95a2.72,2.72,0,0,1,1.67,2,8.3,8.3,0,0,0,1.19,2.33c.38.39,2.77,4.3,5.29,8.68,8,13.83,13.26,21.79,16.83,25.17,2.43,2.34,2.15,1.1-.57-2.38s-4.62-6.68-4.62-7.87c0-.43-1-1.57-2.15-2.52a24.86,24.86,0,0,1-4.15-5.2c-2.43-4.2-4.86-9.82-4.38-10.25.19-.19.38-.1.47.14.77,2.1,6.87,10.2,11.16,14.88a76.11,76.11,0,0,1,9.06,11.68,56.53,56.53,0,0,1,3.81,6.53c0,.28-.38.33-.81.19-.67-.24-.62,0,.33,1.57,2.72,4.58,6.49,9.11,13.83,16.64C412,810.94,416,815.38,416,816.14a22.09,22.09,0,0,0,2.39,4.15,23.73,23.73,0,0,1,2.38,4.24c0,1.33,6.1,6.48,11.78,9.92a39.06,39.06,0,0,1,7.77,6.86c3.38,3.67,5.05,5.1,7.34,6.2a44.87,44.87,0,0,1,6.24,4.1c1.86,1.43,5.25,4.1,7.54,5.86a28.74,28.74,0,0,1,4.48,4c.33.81,3.57,2.53,4.81,2.53s5.34,2.66,5.34,3.33c0,1,12.35,8.35,13.4,8,.28-.09-.81-1.14-2.48-2.29s-2.72-2.19-2.43-2.29c.62-.19,10.1,4.63,12,6.11l1.19.95h-1.28c-.77,0-1.34.14-1.34.38a14.33,14.33,0,0,0,3.1,2.43,12.26,12.26,0,0,1,3.1,2.53c0,.57,7.82,4.19,13.06,6,5.43,1.91,11.39,3.44,21.74,5.49,4.58.9,10.82,2.43,13.82,3.38,13.4,4.24,29.7,7.82,39.57,8.73a97.67,97.67,0,0,0,10,.23c5.44-.23,5.49-.23,6.63,1a3.55,3.55,0,0,0,2.62,1.24c1.29,0,1.34.1.62.53s-2.91.24-8.34-.48c-4.1-.57-8.11-1-8.92-.95l-1.43,0,1.34.52c2.33.91,1.38,1.29-3.34,1.29-4,0-4.58.09-3.81.67s1.28.57,2.62.19c2-.58,8.53-.24,16.21.81,6.39.85,17.21,1.76,17.73,1.43a16.68,16.68,0,0,1,3.91-.29,29.92,29.92,0,0,1,10.73,2c.71.38,4,.43,10.25.24a122,122,0,0,0,19.78-2c1.15-.19,1.91-.58,1.77-.81a1.05,1.05,0,0,1,.28-1.1c.43-.48.34-.76-.28-1.1-.91-.47-.67-.57,8-2.29,3.58-.66,4.48-.71,6.06-.19,1,.34,1.76.77,1.67,1a10.24,10.24,0,0,1-3.15.66c-1.91.24-2.72.53-2.43.81.52.53,2.29.19,8.63-1.52a17.85,17.85,0,0,1,3.71-.77c.15.1-1.23.67-2.95,1.24a11.86,11.86,0,0,0-3,1.24,15.65,15.65,0,0,0,3.24-.57c1.71-.38,8.34-1.67,14.78-2.86,17.92-3.24,15.3-2.19,36.94-14.25a139.62,139.62,0,0,1,14.07-6.92c2.47-.9,8.91-3.86,14.34-6.53s10-4.62,10.06-4.33,2.86-1.15,6.15-3.2c12.78-8.1,14.93-9.29,16.4-9.29,1.1,0,2.29-.67,4.58-2.53,1.67-1.38,6.48-5.2,10.68-8.39,7.77-6,9.72-7.82,5.81-5.53-1.24.67-2.43,1.14-2.67.95s-2,1.19-3.71,3c-2.39,2.38-3.87,3.43-5.63,4-2,.67-3.29.81-2.57.29.33-.29,12.06-10,13-10.78.72-.57,1-.62,1.24-.09s.53.48.72.09.09-.52-.24-.52-.43-.14,0-.67a2,2,0,0,0,.48-1c-.19-1.09.19-1.67,1.71-2.81a6.72,6.72,0,0,1,2.48-1.38c.48-.1,2.53-2.15,4.63-4.63,7.29-8.77,11.34-13.34,11.58-13.15s-1.05,2.76-3,5.34c-1.71,2.24-1.52,2.38.72.52l1.19-1-.95,1.19c-.48.67-2.77,3.1-5,5.48-5.29,5.49-8.58,9.3-8.58,9.82,0,3.25,18.12-17.06,27.27-30.55a59.67,59.67,0,0,1,5.67-7.16,76,76,0,0,0,7-9c4.82-7.2,8.3-11.3,9.87-11.73,2.24-.53,13.35-20.69,17-30.7,1.19-3.34,2.15-5.1,3.63-6.72,2-2.2,5.91-9.25,5.91-10.68,0-.57-.29-.72-1-.48s-1.05,0-1.19-.38c-.43-1,2-8.06,3.72-11s10.06-23.35,10.82-26.74c.48-2.19.29-3.38-.43-2.91a8.94,8.94,0,0,0-1,3.1,11.21,11.21,0,0,1-1.29,3.67c-.62.76-.62.62-.38-1.43a74.47,74.47,0,0,1,2-7.63c2.33-7.43,2.1-6.86,2.52-6.1.29.43.58-.14,1-1.81.81-3.77,2.81-18.31,3.38-24.36.57-6.53.57-20.83,0-23.84-.38-1.86-.38-1.71-.24,1.2a19.4,19.4,0,0,1-.19,5l-.38,1.67-.38-2.53c-.57-4-1-2.33-.81,3.72.14,3.67,0,5.72-.33,5.91s-.53-.28-.53-1.52c0-3.15-.57-7.73-.95-7.49a8.3,8.3,0,0,0-1,2.48l-.62,2.29-.39-1.67c-.19-.9-.81-6.05-1.38-11.44a102.94,102.94,0,0,0-1.48-10.73c-.28-.62-.33,3.63-.09,11.68.52,19.69.43,26.41-.48,30.7-.76,3.58-1.86,5.34-2.86,4.72-.24-.14-.28.39-.14,1.15a22.57,22.57,0,0,1-.19,5.43c-.29,2.2-.72,5.63-.91,7.58-.52,4.67-2.43,11.64-3,11.06a8,8,0,0,1-.53-3.14c0-1.48-.19-2.39-.38-2.1s-1.33,4.67-2.52,9.68c-5,20.35-9.49,33.41-16.26,47.19-4.62,9.44-9.77,18.21-10.63,18-.24,0-1,1.24-1.76,2.86-1.48,3.39-5.82,10-9.73,14.88-4.72,6-10.25,12.15-10.82,12.15-.81,0-5.1,5.06-10,11.68C834.8,815,833.18,817,829.7,820.48c-2.28,2.38-3.52,3.34-3.76,2.91-.57-.86-7.53,4.24-13.11,9.58-9.11,8.77-25.51,20.93-41.14,30.46-3.82,2.38-5,2.91-5.53,2.48-.81-.67-2.48,0-12.54,4.72-5.44,2.57-8,3.53-10.3,3.81-3.19.38-9.25,2.91-11.3,4.72-.66.57-.86,1-.47.81,8-2.67,8.72-2,1.19,1a64,64,0,0,0-8.58,4.1c-2,1.34-3,1.67-6.15,2-3.39.28-3.91.47-5.29,1.9a12.7,12.7,0,0,1-8.2,3.1c-1.67,0-2.34.24-3.15,1.24a7.3,7.3,0,0,1-3.91,1.86,12.79,12.79,0,0,1-3,.53,12.23,12.23,0,0,1,2.72-2.25c3.62-2.67,2.72-2.9-3.29-.9-5.15,1.67-5.19,1.72-4.15.52a20.24,20.24,0,0,1,4.39-2.43,12.94,12.94,0,0,0,3.34-1.76c-.67-.67-9.2,1.29-17.16,3.91-5,1.67-10.83,3.33-12.92,3.76a116.21,116.21,0,0,1-13.21,1.72c-1.38,0-1-.86.57-1.19,1.77-.38,2.2-1,1.1-1.58-.57-.28-3.34,0-8,1-6.67,1.24-7.67,1.29-15,1A114.29,114.29,0,0,1,620,896.28a132.51,132.51,0,0,0-15-1.34,113.86,113.86,0,0,1-12.64-1c-3.05-.67-13.16-5.34-14.39-6.68-1-1.09-6.39-2.86-13.83-4.52-4.91-1.15-10.77-2.72-12.73-3.48-.43-.15.19.85,1.34,2.19l2,2.53,4.62-.15a24.15,24.15,0,0,1,6.82.53c3.62,1.05,2.81,1.67-1.62,1.28-2.2-.14-6.06-.43-8.63-.62-4.1-.23-5-.47-7.15-1.76a16.75,16.75,0,0,1-4.1-3.72c-1.48-2-2.1-2.38-6.44-4-2.67-1-10.58-4.58-17.59-8-11.25-5.38-13.44-6.29-18.12-7.34-7.05-1.52-11.53-3.81-18.68-9.53-6.68-5.34-7.39-5.77-7.39-4.72,0,.76-.48.71-2.72-.1-.33-.14-.62,0-.62.29,0,1-2.34-.95-3.81-3.2a7.73,7.73,0,0,1-1.43-3.71c0-1.39-.19-1.62-1.77-2.15-1.33-.43-4-2.86-10.15-9-8.2-8.2-8.3-8.3-4.67-5.77,2.05,1.38,3.86,2.38,4.05,2.24.52-.52-.43-1.24-7.15-5.39-6-3.71-8-4.67-5.53-2.62.62.53.86,1,.52,1-1.24,0-6.67-6.15-9.44-10.77a36.93,36.93,0,0,1-2.76-5.29c.05-.34-1.53-2.15-3.53-4-15.87-15.21-19.07-18.36-19.4-19.22a7.09,7.09,0,0,0-1.19-1.9c-1.2-1.34-7.15-12.88-7.15-13.83,0-1.19-2.72-6.29-4.06-7.48s-7.1-13.49-12.39-26.6c-4.05-10-10.44-28.08-10.06-28.51a11,11,0,0,1,3,1.47c1.53,1,5.72,3.29,9.35,5.25,6.48,3.53,6.62,3.62,7.81,6.15a12.86,12.86,0,0,1,1.29,4.91c.1,3,2.91,8.87,6.91,14.49a25.56,25.56,0,0,1,3.58,6.44c.91,3,3.77,8,7,12a32,32,0,0,1,2.38,3.29c0,1.05-1.24-.24-3.76-3.95a23.18,23.18,0,0,0-3.58-4.49,4.91,4.91,0,0,1-1.52-1.85c-1.48-2.91-7.92-13.78-8.11-13.64a15.7,15.7,0,0,0,.77,3.15c1.43,4.53,1.95,8.53,1.33,9.87-.43.95-.24,1.47,1.72,4,2.24,2.91,4.14,4,5.19,3,1.72-1.72,4.67,1.43,9,9.58,2.86,5.34,3.1,5.67,5.15,6.43,3.1,1.15,5,3,3.1,3-.38,0-.72.19-.72.38,0,.62,2.53,4,4.06,5.34,1.81,1.67,6,7.39,6,8.2a3.62,3.62,0,0,0,.71,1.62c.91,1.19.91,1.67,0,1.33-.43-.19-.71,0-.71.48,0,.91,4.91,5.82,6.19,6.24,1.1.34,3-.57,2.63-1.23-.58-.86.47-.39,1.76.85.71.72,1.33,1.05,1.33.81a6.87,6.87,0,0,0-1.66-2.09,6.77,6.77,0,0,1-1.67-2.15c0-.86-5.34-8.15-9.82-13.35-6.44-7.48-16.4-22-16.64-24.21a24.49,24.49,0,0,0-2.43-4.87c-2.72-4.57-7.3-14.11-12.35-25.6-3.1-7.15-3.86-8.48-5-9-.95-.38-1.66-1.33-2.62-3.67a22.83,22.83,0,0,0-2.91-4.77c-1.47-1.52-1.66-1.62-3.71-1.33l-2.2.33-1.38-3.15c-2-4.38-2.53-6.48-1.72-6.48s-.38-3-2.28-5.86a11.13,11.13,0,0,1-1.53-3.58c-.33-1.91-1.62-4.62-1.67-3.43a12,12,0,0,0,.43,2.29c.24.81.29,1.52.05,1.52a4.63,4.63,0,0,1-.91-2.29,21.63,21.63,0,0,0-2.48-5.14,23.29,23.29,0,0,1-2.33-4.53c-.86-2.86-1.48-9.16-1-9.68.72-.72,1.86.62,2.44,2.86.76,3,1.57,2.67,1.14-.52-.38-3.34.38-3.44,1.1-.15.28,1.39.9,4.34,1.33,6.53.91,4.25,1.43,5.1,6,8.63,1.76,1.39,2,1.48,1.29.48-2.2-3.1-3.24-5.2-3.53-7.06-.14-1.09-.14-2,.1-2,.62,0,0-12.35-.72-14.16-.57-1.48-.62-1.52-1.76-.76a3.54,3.54,0,0,0-1.43,2.62c-.58,3.29-1.29,1.19-1.34-3.76,0-3.06.19-5.06.62-5.82.53-1,.53-1.19-.14-1.57-.86-.48-1.05-3.82-.34-5.72a2.47,2.47,0,0,0-.19-2.24c-.76-1.43-1-1-1.66,3a17.2,17.2,0,0,0,0,7c.57,3.57.52,3.86-.29,4.48-1.29.95-2.15-.05-2.81-3.43-.67-3.1-.53-3.82.62-2.91.62.52.66.43.43-.81-.72-3.39-.91-16-.39-21.46a35.81,35.81,0,0,1,1-6.1c.19-.19.52,1.91.66,4.72s.53,5.34.82,5.63c.61.62.61-4.25-.05-8.06-.24-1.57-.57-3.62-.72-4.53l-.24-1.67.81,1.39c.67,1.24.86,1.28,1.24.57a5.4,5.4,0,0,0,.39-2.34c0-.86-.1-3.86-.15-6.72,0-3.86-.14-4.91-.47-4-.48,1.09-.48,1-.86-.77-.53-2.71-.53-10.29.05-16a161.87,161.87,0,0,1,2.71-16.88l.29-.95.38.95a27.17,27.17,0,0,1,.1,6.44c-.2,4.62-.15,5.38.38,4.86s.66-2.48.71-8.34c.05-8.3,1.05-13.88,2.34-13.35.43.14,1.19-.81,2.1-2.72,1.38-2.72,1.47-3.38,1.52-8.06.05-6.77.43-8.91,2.81-15a26.55,26.55,0,0,0,2.1-8.11,19.55,19.55,0,0,1,1.34-5.77c1.81-4.38,8.34-16.11,8.58-15.39.14.33.71-.29,1.24-1.39.81-1.52,5.43-12.34,7.58-17.68a.65.65,0,0,1,.85-.38c.43.14.81-.53,1.2-2a39.26,39.26,0,0,1,2.19-5.76c1.91-4.1,1.81-5-.1-1.67-.76,1.28-3.05,4.57-5.14,7.34a66.88,66.88,0,0,0-6.77,11.2,46.13,46.13,0,0,1-3.06,5.72c0-1.14,1.63-7.2,3.68-13.73,1.9-6,2.52-7.39,4.29-9.44,1.62-1.9,2.05-2.76,2.05-4.19,0-2.81,1.33-6.63,2.52-7.25a6.7,6.7,0,0,0,1.67-1.33,47.09,47.09,0,0,0,6.72-11.92c2.2-5.53,6.25-12,7.54-12,1,0-.53,3.34-6.25,13.11-2.57,4.48-3.43,6.25-2.91,6.34s.15,1.15-1.52,4.2c-1.24,2.33-2,4.24-1.77,4.48.72.67,1.91-.57,2.58-2.62.86-2.62,2.33-4.67,3.19-4.34.48.19,1.05-.52,1.91-2.48,1.19-2.53,5.62-8.68,6.86-9.44.34-.19.77.05,1,.48.67,1.14,1.15.95,3.67-1.38a15.08,15.08,0,0,1,2.58-2.15c.19,0-.24.76-.86,1.72a6.54,6.54,0,0,0-1.19,2.52,24.87,24.87,0,0,1-3.34,4.82c-3.38,4.05-4.05,5.43-2.52,5.15,1.76-.34,13.44-19,15.39-24.46.43-1.29.29-1.19-1.47.81-2,2.34-2.82,2.81-2.82,1.62,0-.38-.57-.76-1.24-.86L434,438l1.82-1.81a6.54,6.54,0,0,1,2.43-1.76.71.71,0,0,0,.62-.77,9.2,9.2,0,0,1,1.43-2.81,9.85,9.85,0,0,0,1.43-2.48,8.22,8.22,0,0,1,2.71-1.52,106.82,106.82,0,0,0,9.63-5.68c3.82-2.48,8.11-5.05,9.49-5.77,2.48-1.19,2.58-1.19,3.2-.33.81,1.1.33,1.43,13.34-8.82,10.54-8.25,18.41-14.06,23.41-17.21,4.62-3,4.86-3.05,3.67-1.71a4.83,4.83,0,0,0-1.1,1.43c0,.62,8.44-3,10.83-4.68a23.41,23.41,0,0,0,4.24-3.91c2.67-3.38,5-5.81,5.48-5.57.19.14,3.1-.62,6.44-1.67a54.83,54.83,0,0,1,7.29-1.91c.67,0,4.24-1.81,8-4,7.06-4.29,10-5.63,15.73-7.39l3.43-1.05,2.25,1.34a8.13,8.13,0,0,0,5.38,1.28c2.62,0,3.67-.28,6.49-1.71s4.91-2,11.68-3.24a112.62,112.62,0,0,1,12.49-1.67c4.91-.1,7.15-.58,6.91-1.29-.1-.33-.76-.62-1.43-.72S610,352.19,610,352s5.25-1.19,6.91-1a74.31,74.31,0,0,0,8.11-1.38c3.91-.81,9.58-1.77,12.54-2.15,6.43-.85,17.54-.95,18-.19a7.24,7.24,0,0,0,2.43,1.48c1.14.48,2,1.1,1.81,1.38-.43.67-4.43.53-4.86-.19-1.15-1.95-8.44-2.76-14.88-1.71-2.86.47-3.24.66-3,1.47.14.58-.29,1.43-1.15,2.39l-1.38,1.43,2.15-.38a119.13,119.13,0,0,1,13.35-.19c10,.19,24.21.19,31.46,0,5.82-.15,31.42,5.81,40.66,9.48a20.33,20.33,0,0,0,4.44,1.39c1.19-.1,10.3,4.81,10,5.33-.14.24.43.81,1.29,1.24,2.29,1.15,5.72,3.58,5.48,3.82-.38.43-6.48-1.19-8.48-2.24a4.76,4.76,0,0,0-2.25-.72c-.33.38-.23.43,2.53,1.86s2,1.67-1.19.57a5.71,5.71,0,0,0-2.24-.52,48.58,48.58,0,0,0,6.15,2.43c7.34,2.62,8.39,3.1,10.49,5a12.4,12.4,0,0,0,5.15,2.14c7.53,1.81,15.44,5.72,19.78,9.78a24.27,24.27,0,0,0,3.72,2.86,5.21,5.21,0,0,1,1.81,1.62c0,.33,2.1,1.9,4.62,3.57,3.53,2.29,4.2,2.62,2.72,1.29s-1.76-1.67-.71-1.38a16.2,16.2,0,0,1,6.1,3.43c1.05,1,1.86,1.24,4.91,1.53a12.41,12.41,0,0,1,5.86,1.62c2.77,1.62,11.54,9,12.25,10.39.48.86.39.9-.62.62-.57-.19-3.38-1.43-6.24-2.77s-5.24-2.28-5.39-2.09.57.71,1.62,1.24c3.34,1.71,13.45,10.48,13.45,11.72a5.81,5.81,0,0,0,2.14,1.81,25.37,25.37,0,0,1,4,3.48,6.93,6.93,0,0,0,2.57,2.1,24.94,24.94,0,0,1,4.1,1.24c3.05,1.15,3.72,1.67,7.49,5.72a34.37,34.37,0,0,1,3.76,4.48c-.19,0,.76,1.2,2.1,2.67,3.24,3.53,3.1,4.39-.19,1.15-1.43-1.43-2.62-2.39-2.62-2.1,0,1,2.19,3.77,3.76,4.72A56.5,56.5,0,0,1,849.2,455c3.43,3,4.15,3.34,3.67,1.67-.28-1-.28-1,.67.14a42.7,42.7,0,0,1,2.91,4.82,22.07,22.07,0,0,0,2.62,4.24c1.14.95.86,1.48-.48.86-.66-.29-1.28-.43-1.43-.29s.81,2.05,2.2,4.24c4.1,6.68,3.81,6.34,4.29,5.63a3,3,0,0,0,.09-1.86c-.28-1.29,0-1.14,1.77,1.19,1,1.34,1,1.38.71.24-.48-1.72,4.77,6.25,7,10.58a25.43,25.43,0,0,1,1.86,4.44,7.91,7.91,0,0,0,1.38,2.76c.72,1.1,3.24,5.2,5.53,9.16s5,8.34,5.91,9.77c1.48,2.29,1.72,2.48,1.86,1.52a2.62,2.62,0,0,0-.52-1.9,22.22,22.22,0,0,1-2-3.39c-1-1.95-1.1-2.48-.53-2.29s.77,0,.77-1.19c0-1.43,0-1.48.9-.66,1.43,1.33,4.15,7.19,6.2,13.44,1.81,5.67,4.19,11,4.62,10.53.15-.14-.76-3.52-2-7.53-3-9.77-6-17.59-6.67-17-.15.14.09.95.52,1.76s.57,1.43.33,1.24c-.76-.47-7.72-9.72-7.72-10.25a39.1,39.1,0,0,0-2.38-5.29c-1.29-2.62-2.39-4.86-2.39-5,0-1,1.29.95,3.34,5a32.08,32.08,0,0,0,2.86,5c.72.43-.09-1.53-3.14-7.63-2.44-4.81-4.15-7.63-3.25-5.29.86,2.19-1-.29-7.15-9.49-3.57-5.38-7.82-11.39-9.34-13.35a21.89,21.89,0,0,1-2.86-4.1,16.75,16.75,0,0,0-1.67-3.29,14.08,14.08,0,0,1-1.67-3.38c0-.86,2.58,1.72,3.62,3.67.48.91,1.1,1.62,1.29,1.62.67,0,0-1.14-2.76-5.24-2.77-3.86-7.15-8.11-8.49-8.11-.71,0-9.87-9.29-9.87-10.06,0-.23-.71-.71-1.52-1.09-1.77-.81-11.73-10.06-11.3-10.49s8.63,5.91,12.44,9.82c2,2,4,3.72,4.39,3.72,1.24,0,8.77,6.67,16.25,14.4,8.16,8.34,10.06,10.72,13.83,17.06,1.52,2.48,3.67,5.87,4.81,7.54a24,24,0,0,1,2.1,3.33c0,.57,9.92,15.35,10.3,15.35.14,0,0-.43-.29-1s-.47-1.09-.33-1.19c.24-.29,4.72,6.58,5.86,9.06.67,1.38,1.05,1.62,1.91,1.43s1.29.09,2.53,2.29a37.57,37.57,0,0,1,2.71,6.34c1.34,3.91,3,7.62,3.29,7.29s-1-7.29-1.62-8.44c-.33-.62-1.43-2.38-2.43-3.91a39,39,0,0,1-5.2-14.87,25.57,25.57,0,0,1-.28-4.1c.09-.1.86.33,1.67.91s1.57.95,1.71.81c.48-.48-1.28-3.29-3.76-6-4-4.39-6.06-7.06-6.06-7.87a5.48,5.48,0,0,0-1.38-2.34c-1.53-1.76-5.48-9.91-4.82-9.91.24,0,1,.81,1.72,1.76s1.53,2,1.72,2.29c.9,1-1.91-4.72-5.58-11.44-5.39-9.87-7.39-13.87-7.39-15,0-1.33-9.2-12.73-10.58-13.11a11.9,11.9,0,0,0-2.15-.29,8.18,8.18,0,0,1-3.19-1.66,18.56,18.56,0,0,0-2.48-1.67c-.33,0,4.1,5.77,5.05,6.58,1.86,1.57,2.48,1.47,1-.15-1.2-1.28-1.39-1.71-.72-1.43a17.32,17.32,0,0,0,2.34.62c2.28.38,7,7.11,11.06,15.73a34.25,34.25,0,0,1,1.95,4.68,13.9,13.9,0,0,1-2.72-2.43,14,14,0,0,0-3.14-2.63c-.34,0-1.1-.71-1.67-1.57s-2.67-3.19-4.58-5.2a26.22,26.22,0,0,1-3.48-4.19,28.63,28.63,0,0,0-3.91-4.58,39.24,39.24,0,0,1-4.14-4.62c-.24-.81-3.48-4.15-4-4.15-.24,0-.33.33-.14.72.33,1,0,.9-2-.29-1.81-1.14-4.91-5-4.91-6.1a2,2,0,0,1,1-1.39c.86-.57,1.15-.52,2,.29,2,1.86,5.06,3.53,5.77,3.24,1-.38,2.1.24,5.77,3.34,2.29,1.95,3.15,2.43,3.34,1.91.38-1-.81-3-4-7.06-3.77-4.62-6.2-7-6.11-5.82.05.53-.33,1-1.09,1.15-1,.24-1.19.57-1.15,1.76l.1,1.48-3-2.05a88.83,88.83,0,0,0-7.91-4.58c-4.2-2.14-5.72-3.29-9.54-7-3.24-3.2-5.33-4.82-7.38-5.77-2.67-1.24-9.16-6.48-8.63-7,.38-.38,5,2.1,9.72,5.2,2.43,1.62,4.53,2.81,4.67,2.67a11.05,11.05,0,0,0-2.52-2.77c-2-1.76-4.63-3.43-9.44-5.76-7.34-3.58-11.54-6.2-13.11-8.2s-.24-1.63,4.91,1.57c4.72,2.91,8.15,4.77,8.72,4.77a14.82,14.82,0,0,0-2.86-2.91c-3.67-3.39-3.86-4.24-.33-1.43a64.12,64.12,0,0,0,6.15,4.1c3.86,2.33,7.82,5.48,6.82,5.48-.62,0,.71,2.38,1.71,3,1.53,1,7.06,5.63,12.25,10.25,3.1,2.82,5.82,5.15,6.06,5.25,2.29.85-7.06-9.2-13-14-2-1.62-5.43-4.53-7.62-6.39-5.49-4.76-8.63-7.15-12.54-9.44s-6.72-4.57-5.25-4.24c.53.14,1.34.38,1.82.57,1.62.67.76-.52-1.53-2-2-1.33-2.48-1.52-3.24-1.05s-1.29.39-3.05-.47a79.86,79.86,0,0,1-13.78-9.54c-5.34-4.62-8.25-6.38-13.06-8.1-2.2-.81-9.25-3.58-15.64-6.25-13.2-5.48-25.27-10.2-27.22-10.67-.76-.2-1.29-.67-1.29-1.15,0-1.57-1-1.95-5.15-1.95-2.19,0-6-.24-8.43-.53-6-.71-7-.38-3,1,1.81.62,3.15,1.19,3,1.33-.43.38-11.92-1.38-14.83-2.29-2.28-.67-2.9-.71-3.43-.24-.66.72-2.38.62-11.15-.47-3-.38-6.15-.67-7-.67s-1.57-.24-1.57-.48-.72-.81-1.53-1.19c-1.48-.62-1.24-.67,3.91-.67,3,0,8.1.29,11.3.58s5.67.42,5.48.28c-1-1-9.44-1.95-20.59-2.38-6.68-.24-13.16-.62-14.4-.86a7.94,7.94,0,0,0-2.29-.19,9.24,9.24,0,0,0,2.15,1.14,21.32,21.32,0,0,0,6.57,1.24c3,.19,4.91.57,6.06,1.19l1.67.91-1.67-.29a78.85,78.85,0,0,0-12.49-1.19,25.33,25.33,0,0,1-6.2-.66,39.21,39.21,0,0,0-7.15-1c-5.15-.33-6-.66-4.58-2.05s-.38-1.62-6.62-1.43c-5.15.15-6.44.34-8.35,1.29a6,6,0,0,1-4.19.76c-2-.33-2.15-.52-1.53-1.47.43-.72,8.39-2.44,12.92-2.86,2.58-.24,3.58-.15,4.44.38,1.33.86,8.48,1.47,10.87.95a2.93,2.93,0,0,0,2.28-1.67,2.94,2.94,0,0,1,2-1.62c.77-.14,1.34-.38,1.2-.48a34.51,34.51,0,0,0-4.63-.85A89.28,89.28,0,0,0,631,316.48Zm3.77,19.22c-1.86.62-2.62,1-2.57,1.62a2.32,2.32,0,0,1,0,.81l-4.1.71c-4.34.77-17.64,1-16,.24a7.42,7.42,0,0,1,2.52-.43c2.05,0,1.53-1-.57-1-1.86,0-12.78,2.05-16.45,3.1a11.85,11.85,0,0,0-3.62,1.67,7.25,7.25,0,0,1-3.1,1.09c-2.48.34-8.1-.14-8.1-.62,0-.19.67-.62,1.52-1,4.72-1.95-6.05.38-15.35,3.29-2.48.81-6.1,1.91-8,2.48s-3.48,1.24-3.48,1.48.29.43.62.29a47.45,47.45,0,0,1,6.1-.53c5.29-.33,5.39-.28,4.29.53-.62.47-1.9,1.57-2.86,2.47a20.78,20.78,0,0,1-3.38,2.44c-1.67.85-5.1,1.71-5.87,1.52a30.5,30.5,0,0,0-4.14.86,35.71,35.71,0,0,1-4.58.95c-.76,0-.76,0,0-.9s.76-.91-.81-.77-9.72,3.29-10.58,4.1.47.48,4-.81a14,14,0,0,1,3.62-1c.43.38-3.81,2.58-11,5.72-3.91,1.72-9.58,4.2-12.54,5.53a97.62,97.62,0,0,1-14.68,5.25c-3.1.81-5.15,2.43-5.34,4.19-.19,2-2.1,3.63-8.15,6.77-3.67,2-5.2,3.05-6,4.29a11.93,11.93,0,0,1-2.1,2.62,3.33,3.33,0,0,0-1,1.72c0,.48-1.19,1.57-2.72,2.62-3.09,2-4.91,3.53-4.91,4.15,0,.86,1.1.24,6-3.43,4.48-3.39,6.92-4.58,6.92-3.48a7.11,7.11,0,0,1-1.77,1.9c-1,.86-1.52,1.53-1.19,1.58s2.34-1.67,4.53-3.77c4.05-3.86,6.48-5.48,7.87-5.19.57.14.14.57-1.29,1.28a26.82,26.82,0,0,0-4.86,3.82,119.18,119.18,0,0,1-11.16,9.58c-1.81,1.43-4.1,3.24-5.05,4.1-1.81,1.57-3.63,2.38-4.15,1.91-.14-.2,1.19-1.86,3-3.72,3.62-3.72,3.29-3.86-.81-.29a20.53,20.53,0,0,1-3,2.29c-.48,0-.34-2.38.19-3.39s-5.53,2.67-7.73,4.72c-.76.67-1.33,1-1.33.67,0-1.1-1.1-.57-5.05,2.29-4.82,3.53-6.44,4.1-3.48,1.33A71.79,71.79,0,0,1,466,404.44c1.76-.95,5.53-3.29,8.39-5.2,4.15-2.81,5.39-3.91,6.48-5.81A9.73,9.73,0,0,0,482,391a54.5,54.5,0,0,0-4.86,3.63c-3,2.29-4.87,3.48-5.34,3.29s-1.58.52-3.05,2c-1.24,1.24-2.29,2.05-2.29,1.86,0-.72,4.38-6.63,6.86-9.25,1.29-1.34,2.1-2.48,1.81-2.48a34,34,0,0,0-5,3c-3.2,2.09-7.25,5.72-14.45,12.77-5.48,5.39-10.77,10.35-11.68,11s-4.58,4-8.1,7.49c-6.63,6.58-11.78,11-16.07,13.73-2.91,1.91-7.91,4.19-7.67,3.53.09-.24,1.52-2.39,3.19-4.77,2.62-3.72,3.24-4.34,4.15-4.1,1.14.29,4.05-2.81,13.73-14.73a169.79,169.79,0,0,1,17.06-18.59c5.39-5,7.15-6,3-1.67-1.58,1.62-2.43,2.76-1.91,2.48,1.19-.62,3.19-2.77,6.63-7.11a26.71,26.71,0,0,1,4.95-4.95c1.34-1,1.91-1.2,1.43-.58a5,5,0,0,0-.85,1.15c0,.57,6.24-2.86,8.58-4.77,7.1-5.67,17.06-11.39,31.7-18.16,5.24-2.43,9.82-4.82,10.2-5.34,1-1.29,6-4.67,7-4.67.67,0,.71.09.14.76s-.52.76.53.38c1.81-.62,5.81-.52,6.05.19.14.38-1.81,1.57-5.39,3.19-3.05,1.48-5.48,2.77-5.34,2.91.48.43,7.73-1.81,11.26-3.48,2.28-1.05,3.62-2,3.9-2.71.58-1.48,13.69-9.82,17.88-11.35,4.34-1.57,11.16-3.43,11.49-3.1a14.9,14.9,0,0,0,4.1-1.38c2.72-1.15,4-1.48,4.43-1.15,1.24,1.05,6.11,1.05,10.49.05,2.39-.52,7.63-1.71,11.68-2.67a74.45,74.45,0,0,1,12.35-1.9,33.9,33.9,0,0,0,5.2-.48c.14-.14,6.38-.24,13.87-.19C637.39,334.89,637.39,334.89,634.77,335.7Zm33.85,4.81c6.67.29,17,.86,22.88,1.24,10.06.72,11.35.91,21.26,3.34,10.87,2.62,13.59,3.43,11.92,3.48s.14,1.33,3.67,2.38c1.86.57,5.39,1.72,7.72,2.48a42.27,42.27,0,0,0,6.35,1.62,17.1,17.1,0,0,1,6.67,2c.86.53,1,.81.57,1.34s-.14.81,1.05,1.57c1.72,1.05,11.35,6.06,12.4,6.44.33.09.52.33.38.47a8.07,8.07,0,0,1-3.1-.38c-3.91-.9-4.34-.9-3,.24l1.14.95-1.19-.23c-.67-.15-3.62-.77-6.63-1.43-6.29-1.39-6.43-1.39-4.67-.43a30.52,30.52,0,0,0,5.72,1.62c5.1,1.09,9.39,2.71,9.39,3.57,0,.29-.52.81-1.19,1.1-2.57,1.19-14.25-2.43-12.11-3.77.91-.52.19-1.09-2.43-1.81a21.87,21.87,0,0,1-4.77-2.24,19.19,19.19,0,0,0-6.29-2.29,23.35,23.35,0,0,1-4.77-1.28c-1.38-.72-3.24-2.39-3.24-2.91,0-.24.48-.38,1.1-.29.81.1,1-.05.9-.76s.05-.86,1.67-.62l1.81.29-1.38-.77a21.71,21.71,0,0,0-5.58-1.09c-4.43-.34-5.38-.77-5.86-2.58-.24-.95-1.29-1.48-7.53-3.53-4-1.33-9.11-2.86-11.3-3.43-4.67-1.19-10.06-1.91-10.06-1.33,0,.19.29.38.62.38s.24.28-.29.67c-.76.57-.66.66,1,1,2.14.38,5.15,1.57,4.81,1.9a67.78,67.78,0,0,1-8.72-.95c-9.77-1.38-11-1.43-7.39-.29l2.62.81-5.48.34c-7.63.47-11.35.43-16.4-.19s-8.44-1.39-8.15-1.86c.14-.24,1.81-.53,3.76-.72,2.67-.24,3.82-.19,4.87.38s1.81.62,3.43.2c1.1-.29,2-.67,2-.86s-2.53-.81-5.58-1.39c-11.29-2.09-15.16-3.48-8.43-3.09C654.75,339.94,661.94,340.27,668.62,340.51ZM399.55,475.19a92.69,92.69,0,0,0-3.62,9.43,38,38,0,0,1-5.53,11.64,14.43,14.43,0,0,0-1.86,3c.38,0-1.29,5-3.62,10.73a91.34,91.34,0,0,0-3.05,9,31.67,31.67,0,0,1-5.72,12A19.1,19.1,0,0,0,373,537c-1.1,3.57-.95,4.62.29,2.43l.76-1.34-.29,2.39c-.43,3.38-5.86,24.64-6.43,25.22-.76.76-.57-.67.47-3.82,1.24-3.57,1-4.91-.38-2.24a6.56,6.56,0,0,1-1.33,2.05c-.43,0,.28-5.19.9-6.53s0-2.1-.9-.91c-.62.91-.67.86-.76-.71-.2-3.86,1.09-8.34,3.9-13.73,1-1.81,1.1-1.72,1,.91-.05.9.05,1.52.19,1.38a77.9,77.9,0,0,0,2.95-9.82c-.09-.1-.52.62-1,1.52-.91,1.72-1.39,2-2.44,1.29-.47-.29.1-2.43,2.2-8.72,2.86-8.63,4-11.21,6.34-14.64,1.33-1.91,2.76-2.67,2.76-1.43.05.62,3.44-7.1,4.1-9.25.29-1.05.29-1.05-.62-.28a3.13,3.13,0,0,1-1.67.85c-1.09,0-2.09,1.43-3,4.15-.76,2.39-1.67,3.34-1.67,1.86,0-1.24,1-3.29,3.91-8.48,2.62-4.63,3.05-5.11,4-4.87,1.19.34,1.9-.76,2.19-3.43.24-2-.81-1.86-2.29.24a8.84,8.84,0,0,1-1.67,1.95c-.67,0,3.48-10.77,5.44-14.25,2.14-3.77,3.05-4.43,4.34-3.15.71.77.85.72,1.71-.33,1.38-1.62,1.15-.57-.52,2.38a9.12,9.12,0,0,0-1.24,2.77c.43.43,2.57-2.62,4.62-6.53,2.19-4.29,2.86-5.34,3.2-5A44.37,44.37,0,0,1,399.55,475.19ZM363.28,566c.38.57-.15,4.34-.72,5.29-.76,1.15-.95.19-.67-2.81C362.23,565.67,362.61,565,363.28,566Zm-6.92,18.12c.81,6.43,1.67,12.54,1.91,13.58.52,2.2.52,13,0,17.17-.24,2-.38,0-.43-6.92-.09-12.58-.71-13.92-3-6.43-.67,2.1-1.76,6.39-2.43,9.53s-1.38,5.91-1.48,6.2c-.86,1.86,1.14-24.89,2.38-32.18.39-2.19.53-4.1.29-4.29a11.8,11.8,0,0,1,0-3.91c.33-3.34.76-5,1.14-4.58C354.79,572.39,355.55,577.73,356.36,584.12ZM360.13,635a39.56,39.56,0,0,1,1.24,4.68c.43,1.81,1.38,5.19,2.14,7.43,1.48,4.29,2.58,12.83,1.58,12.21a4.53,4.53,0,0,1-.72-2.43,12.61,12.61,0,0,0-1.86-4.68,7.67,7.67,0,0,1-1.52-5.53c.05-2.14-.1-2.95-.48-2.81s-.62.86-.71,1.67c-.2,2-.86,2-1.24.05s-.39-11.16,0-11.54C359.18,633.41,359.6,633.7,360.13,635ZM341.06,665.4v1l-.43-1a5.08,5.08,0,0,1-.43-1.67c-.05-.62,0-.62.43,0A3.72,3.72,0,0,1,341.06,665.4ZM367.52,696a1.78,1.78,0,0,1,.76,1.62c0,2.1-.81,2.1-1.33,0a11.31,11.31,0,0,1-.34-1.91A6.56,6.56,0,0,1,367.52,696Zm7.34,18.88c1.62,3.48,4.1,9.1,5.58,12.53s4.05,8.87,5.77,12.11a52.1,52.1,0,0,1,3.05,6.53c0,1.58-1,.34-3.82-4.86-1.71-3-3.14-5.34-3.19-5.1-.57,1.72,9.82,19.59,11.44,19.74.33,0,.86.09,1.19.14s1.24,1.14,2,2.53c1.2,2,1.29,2.47.67,2.71A2.07,2.07,0,0,1,396,761c-1.24-.67-6-5.77-7.2-7.82-1.72-2.76-1.72-1.76-.05,1.58.81,1.62,1.24,2.81,1,2.62-.71-.43-2.33-3.82-6.53-13.3s-5.48-12.68-5.15-12.68a6,6,0,0,1,1.2,2c.57,1.1,1.14,1.86,1.24,1.72s-1.48-4.39-3.58-9.49c-3.19-7.72-5.77-15.21-5.77-16.69S372.33,709.4,374.86,714.84Zm63.69,73.75c.76.76,1.1,1.47.86,1.66-.53.34-3.43-1.9-3.43-2.62S437.26,787.25,438.55,788.59Z" transform="translate(-228 -299)"/><path class="cls-3" d="M552.06,351.71c-2,.86-.14.91,2.14,0,1.48-.57,1.53-.66.48-.66A7.31,7.31,0,0,0,552.06,351.71Z" transform="translate(-228 -299)"/><path class="cls-3" d="M521.21,363.63c-2.62,1.38-3.24,2.15-1.71,2.15a6.71,6.71,0,0,0,3-1.67C524.74,362.2,524.31,362,521.21,363.63Z" transform="translate(-228 -299)"/><path class="cls-3" d="M505.58,370.59a32.48,32.48,0,0,1-5.48,1.86c-.86,0-13.11,6-13.11,6.44,0,.09.42,0,.95-.1,1.76-.47.95.62-2.29,3.1s-4.29,2.86-5.15,2c-.33-.33-1.48.24-3.43,1.72a26,26,0,0,0-3,2.38c0,.34,1.82-.71,2.15-1.24.52-.85,1.24-.47.95.48-.43,1.29-.14,1.24,2.48-.67,3.29-2.33,5-3.1,6.34-2.86.81.19,2.2-.38,4.39-1.67a30.52,30.52,0,0,1,3.43-1.95,18.29,18.29,0,0,0,2.53-1.57c1.28-.91,4.67-3.06,7.58-4.77C513,368.35,513.44,367.35,505.58,370.59Z" transform="translate(-228 -299)"/><path class="cls-3" d="M439.08,416.64c-1.91,1-3.58,2.53-3.58,3.34,0,1.1.67.72,3.1-1.76S441.17,415.5,439.08,416.64Z" transform="translate(-228 -299)"/><path class="cls-3" d="M424.82,431.66c-.67.86-1.1,1.62-.95,1.76s1.28-1,2.14-2.47S426.11,430,424.82,431.66Z" transform="translate(-228 -299)"/><path class="cls-3" d="M669.1,345.75c0,.24.9.48,2,.43,1.72,0,1.82-.09.82-.43C670.24,345.18,669.1,345.18,669.1,345.75Z" transform="translate(-228 -299)"/><path class="cls-3" d="M745.13,361.3c1,1,5.34,2.86,5.82,2.38a43.47,43.47,0,0,0-6.68-3.62C744.08,360.06,744.51,360.63,745.13,361.3Z" transform="translate(-228 -299)"/><path class="cls-3" d="M390.78,488.39c-1.33,2.15-2.67,5.63-2.29,6,.15.14,1.05-1.38,2-3.38C392.26,487.06,392.45,485.72,390.78,488.39Z" transform="translate(-228 -299)"/><path class="cls-3" d="M669.57,318.87a17.77,17.77,0,0,1-4.34.95,12.86,12.86,0,0,0-3.81.72c-1.38.85.24,1,4.58.43a31.48,31.48,0,0,1,6.19-.34c1.86.29,1.82-.09-.14-1.48C671,318.39,670.62,318.34,669.57,318.87Z" transform="translate(-228 -299)"/><path class="cls-3" d="M575.18,321.44c-20,3.39-34.32,6.53-34.32,7.58,0,.19.47.62,1.09.86,1,.48.91.57-1.57,1.76-3.24,1.53-4,1.58-3.34.34,1.24-2.34-3-1.43-6.58,1.38a14.14,14.14,0,0,1-2.71,1.91c-.48,0-6.92,4.24-6.92,4.57s1.48-.47,3.63-1.95c1.71-1.15,6.67-2.48,7.24-1.91.19.19-.43,1-1.33,1.72s-1.48,1.38-1.29,1.38a7.64,7.64,0,0,0,3.53-2.1c.19-.33,2.33-1.24,4.67-2a60,60,0,0,0,9.53-4c7.58-4,15.59-6.34,19.79-5.87,1.67.19,3.48-.19,8.1-1.71,6.3-2,11.11-2.91,11.64-2,.14.28-.62.62-2,.81-4.24.62-14,4.1-14,4.95,0,.2,2-.14,4.39-.76a102.25,102.25,0,0,1,10.87-1.9c3.53-.43,6.53-.86,6.62-1s-.23-.47-.81-.9c-1.33-1-1.33-1.43.19-2.82.77-.71,1-1.19.62-1.14S584.24,319.92,575.18,321.44Z" transform="translate(-228 -299)"/><path class="cls-3" d="M601.88,319.53c-.53.34-.24.48,1.09.48,1,0,1.77-.24,1.77-.48C604.74,318.92,602.83,318.92,601.88,319.53Z" transform="translate(-228 -299)"/><path class="cls-3" d="M555.63,329.07c-.38.24-.47.48-.23.48a3,3,0,0,0,1.19-.48c.38-.24.52-.48.24-.48A3.31,3.31,0,0,0,555.63,329.07Z" transform="translate(-228 -299)"/><path class="cls-3" d="M627.38,351.05a10.51,10.51,0,0,1-2.81.38c-1.43.05-1.77.19-1.38.57.62.62,5.86.14,5.86-.52S628.38,350.62,627.38,351.05Z" transform="translate(-228 -299)"/><path class="cls-3" d="M721.92,365.63a1,1,0,0,0,.9,0c.19-.15-.09-.29-.62-.24S721.53,365.49,721.92,365.63Z" transform="translate(-228 -299)"/><path class="cls-3" d="M555.35,367.3l-.91,1.1,1.1-.91c1-.85,1.29-1.24.9-1.24A6,6,0,0,0,555.35,367.3Z" transform="translate(-228 -299)"/><path class="cls-3" d="M721,369.59a7.28,7.28,0,0,0,2.86.81c.91-.24-1.38-1.24-3.53-1.57C719.15,368.64,719.25,368.78,721,369.59Z" transform="translate(-228 -299)"/><path class="cls-3" d="M444.22,382c-2.57,2.24-3.38,3.48-1.28,2,1.57-1.15,4.33-4,3.86-4A20.27,20.27,0,0,0,444.22,382Z" transform="translate(-228 -299)"/><path class="cls-3" d="M823.55,383.18a23.74,23.74,0,0,0,4.49,3.1c.81,0,0-.86-1.82-2S823.55,382.7,823.55,383.18Z" transform="translate(-228 -299)"/><path class="cls-3" d="M437.64,387.28c-2.66,2.71-1.62,2.43,1.67-.48,1.29-1.14,1.86-1.95,1.43-1.95S438.93,385.94,437.64,387.28Z" transform="translate(-228 -299)"/><path class="cls-3" d="M411.85,410.73c-3.43,3.72-6.86,7.53-7.62,8.44-1.2,1.53-1.24,1.57-.19.72.66-.53,2.28-2,3.67-3.2a8.88,8.88,0,0,1,3.38-2.29c1.19,0,3.86-3.24,5.77-7.1a12.5,12.5,0,0,0,1.38-3.15C418.15,404.06,415.29,407,411.85,410.73Z" transform="translate(-228 -299)"/><path class="cls-3" d="M446.56,428c-2.1,1.81-2.48,2.57-1.24,2.57.52,0,.67.29.38,1.05-.33,1-.28,1,.81.24a11.87,11.87,0,0,1,5.15-2.24c.95,0,1.72-1.24,1-1.67a7.19,7.19,0,0,0-2.62.57c-2.53,1-3.1.67-2-1.05C449.13,425.94,448.9,426,446.56,428Z" transform="translate(-228 -299)"/><path class="cls-3" d="M393.5,431.23c-2.62,3.29-2.38,3.82.24.57,1-1.19,1.62-2.14,1.38-2.14A5.46,5.46,0,0,0,393.5,431.23Z" transform="translate(-228 -299)"/><path class="cls-3" d="M380.49,459.22a14.86,14.86,0,0,0-1.24,2.09,4.72,4.72,0,0,0,1.66-.62c1.29-.57,1.63-1.05,1.67-2.09C382.58,456.78,382,457,380.49,459.22Z" transform="translate(-228 -299)"/><path class="cls-3" d="M419.15,464.55c-4.1,6.82-5.1,8.87-5.1,10.25s1.28-.23,4.81-5.86c2.05-3.34,3.29-5.72,3.1-6.2a4.84,4.84,0,0,1,.72-2.67,5.84,5.84,0,0,0,.76-2.09C423.34,457.83,421.39,460.84,419.15,464.55Z" transform="translate(-228 -299)"/><path class="cls-3" d="M893.44,497.07c.48,1.19.57,1.95.24,2.14s.19,1.1,1.14,2.2,1.72,1.76,1.91,1.57c.38-.38-1.81-4.86-3.24-6.68C892.73,495.26,892.68,495.26,893.44,497.07Z" transform="translate(-228 -299)"/><path class="cls-3" d="M906.55,499c.1.24.86,1.77,1.67,3.34,2.77,5.34,8.2,20.26,7.39,20.26-.52,0-2.43-2.15-2.43-2.72,0-1.86-5-16.25-5.53-15.78,0,.1.81,3.29,2,7.06,2.29,7.53,3,11,2.24,11-.23,0-1-1.24-1.57-2.76s-1.19-2.39-1.29-2c-.14.9,5.25,10.87,5.53,10.1a7.62,7.62,0,0,0-.57-2.81c-.9-2.62-1-3.19-.24-2.72s3,5.53,4.2,9.49c.76,2.57,1.24,3.48,2.19,3.91.67.28,1.19.38,1.19.14a30.86,30.86,0,0,0-1.43-3.81,32.32,32.32,0,0,1-1.43-4c0-1.1,1.48.91,2.34,3.29a12.26,12.26,0,0,0,1.91,3.48,5.11,5.11,0,0,1,1.09,1.53c.14.38.43.52.62.33,1.34-1.24-8.44-24-14-32.66C908.27,500.36,905.93,497.54,906.55,499Z" transform="translate(-228 -299)"/><path class="cls-3" d="M899.35,504.7c0,.52,4,7.48,4.15,7.29s-3.34-7.49-3.77-7.49C899.54,504.5,899.35,504.6,899.35,504.7Z" transform="translate(-228 -299)"/><path class="cls-3" d="M900.59,511.18c.29,1.67.91,2.76,1.34,2.33.14-.09-.19-1-.72-2.09l-.9-1.91Z" transform="translate(-228 -299)"/><path class="cls-3" d="M890.1,524.19c.15.48.43.72.58.58s0-.53-.34-.86S889.82,523.53,890.1,524.19Z" transform="translate(-228 -299)"/><path class="cls-3" d="M896.35,527.34c.95,1.62,1.81,2.81,1.95,2.72.34-.34-2.47-5.2-3.09-5.44C894.87,524.53,895.4,525.77,896.35,527.34Z" transform="translate(-228 -299)"/><path class="cls-3" d="M892.2,525.77c0,.9,1.15,3.29,6.72,14,1.2,2.24,2.39,4.67,2.72,5.48.53,1.34.53,1.24.38-1.19-.14-1.43-.47-3.76-.76-5.15-.43-1.95-.76-2.48-1.48-2.48s-1.52-1.23-3.33-4.91a35.25,35.25,0,0,0-3.34-5.81C892.2,524.81,892.2,524.81,892.2,525.77Z" transform="translate(-228 -299)"/><path class="cls-3" d="M911.27,529.63c0,.9,3.86,11.68,4.91,13.82,1.24,2.48,3.53,12.64,4,18,.33,3.63,1.81,6.87,2.67,6a2.32,2.32,0,0,1,1.43-.52c1,0,1,.28,0-5-.48-2.38.47-.91,2.48,4,1,2.58,2.14,4.68,2.38,4.72,1,.15.48-8.15-.91-15-1.24-6.3-1.43-6.72-2.24-6.2-.62.38-.9,1.24-1,3.15l-.14,2.62-1.81-2.77c-1.48-2.19-2-3.72-3-8.34-1.05-5.1-2.81-9.53-4.1-10.3-.67-.43-.52,1.34.29,3.24.86,2.05,1,3.15.24,2.44a31,31,0,0,1-2.29-5.2c-1-2.57-2.05-4.77-2.39-4.91S911.27,529.39,911.27,529.63Z" transform="translate(-228 -299)"/><path class="cls-3" d="M334.29,565.38a21.29,21.29,0,0,0-.52,2.15c-.29,1.48-.19,1.81.43,1.81s.71-.53.71-2.15C334.91,565.14,334.72,564.62,334.29,565.38Z" transform="translate(-228 -299)"/><path class="cls-3" d="M923.48,577.54c0,5.53.95,10.11,2.33,11.77,1.72,2.05,2.1,7.68.53,7.68-.43,0-.43,1.19.09,5,.43,2.91.91,4.87,1.19,4.68s.34-1.2.15-2.34-.1-2.1.19-2.1c.57,0,.47-1,.9,7.54.29,4.81.62,7.48,1,7.86s.53-.24.24-3.48c-.19-2.24-.38-9.82-.47-16.83-.2-14.2-.58-16.49-3.06-18.35a7.38,7.38,0,0,1-2.19-3.43,22.9,22.9,0,0,0-.86-2.39S923.43,575.16,923.48,577.54Z" transform="translate(-228 -299)"/><path class="cls-3" d="M373.38,588.74a32.48,32.48,0,0,0-.57,4.82c-.29,3.14-.19,4.38.19,4.38s.53-1.09.57-3l.05-3,.67,1.91.67,1.91-.24-3.29C374.53,589.41,374,587.84,373.38,588.74Z" transform="translate(-228 -299)"/><path class="cls-3" d="M909.65,646.23a40.4,40.4,0,0,0-.19,5.87c.48.48,1.24-7.72.91-9.58C910.08,641,909.94,641.71,909.65,646.23Z" transform="translate(-228 -299)"/><path class="cls-3" d="M330.81,648.71c.43,2.53,1.29,5.15,1.57,4.82s-.85-5.67-1.43-6.25C330.67,647,330.62,647.47,330.81,648.71Z" transform="translate(-228 -299)"/><path class="cls-3" d="M361.13,752.21c0,.29.76,3.1,1.67,6.2,1.72,5.77,6.29,15.78,7.72,17,.48.33.24-.33-.52-1.67-1.53-2.57-1.43-3.48.14-1.48s1.14.77-1.19-3.62c-1.24-2.24-3.48-7-5-10.49A41.63,41.63,0,0,0,361.13,752.21Z" transform="translate(-228 -299)"/><path class="cls-3" d="M400.22,753.74a10.53,10.53,0,0,0,.72,2.33c.81,2,.9,2.72.24,2.29-1-.62-.43.72,1.57,3.58,1.1,1.62,2.24,3.29,2.48,3.71s1.19,1.86,2,3.15c2.91,4.43,2.62,6.91-.43,4.48-2.57-2-1.91-.9,2.43,4.1,3.72,4.24,5.39,5.39,2.1,1.38-3.81-4.62-3.77-4.62,6.05,2.91,5.63,4.29,7.49,5.34,5.44,3.1a31.84,31.84,0,0,0-3.67-3.15c-1.53-1.19-2.67-2.38-2.58-2.66s-1.05-2.2-2.52-4.2-5.06-7.53-7.87-12.2C400.65,753.5,400.22,752.83,400.22,753.74Z" transform="translate(-228 -299)"/><path class="cls-3" d="M376.39,776.48a16.13,16.13,0,0,0,.71,2c1,2.53.86,3-.43.95-1.52-2.48-1.67-2.52-1.48-.62.29,3.24,4.39,12.68,6.87,16l1.24,1.67.24-1.81.23-1.81,5,6c3.43,4.1,5.48,7.11,6.53,9.44,1.81,4,2,5.1.76,4.1-1.71-1.43.29,1.29,3.44,4.72a55.27,55.27,0,0,0,9,7.29c3.19,2.15,7,4.92,8.44,6.11,2.14,1.86,2.43,2,1.57.76a19.44,19.44,0,0,0-2.53-2.86c-1.86-1.76-2.71-3.19-1.71-2.81.52.19.62,0,.47-.86s0-.86,1.1.57c.72.91,2.67,3.19,4.34,5,2.81,3.29,3.81,4.82,2.24,3.53-.38-.33-.72-.48-.72-.33,0,.43,7.35,7.39,11.68,11,4.1,3.48,5.87,4.58,4.49,2.81-.77-.95-1-1.14,4.86,3.1,3.62,2.62,11.2,6.63,11.63,6.2s-2.67-2.19-8.82-5.63A54.37,54.37,0,0,1,430,838.83c-2.38-2.76-2.48-3.38-.48-2.48,1.53.72,2,.38,1.29-.9-.52-1-9.77-8.68-10.39-8.68-.19,0,.28.62,1.05,1.43s1.19,1.57,1,1.76-2.82-2.28-5.91-5.48-5.92-5.81-6.34-5.81c-.86,0-10-13-14.35-20.41-1.58-2.67-3-4.86-3.29-4.86-.62,0-.53.33.43,1.81l.81,1.29-1.48-1a22.13,22.13,0,0,1-6.39-7.77c-1.76-3.53-3.19-4-1.91-.72.91,2.39-.38.67-3.81-5C377,776.67,376.39,775.81,376.39,776.48Z" transform="translate(-228 -299)"/><path class="cls-3" d="M424.92,788.68c.23,1.57.38,1.67,1.28.72.53-.53.58-.77.1-1.1C424.92,787.2,424.73,787.25,424.92,788.68Z" transform="translate(-228 -299)"/><path class="cls-3" d="M436,795.4c1.34,1.15,2.63,4.29,2.1,5.1-.14.29.53.91,1.53,1.43a16,16,0,0,1,3.48,2.63c1.57,1.66,1.62,1.71.47,1.62-3.48-.39,0,5,6.44,9.72,10.54,7.87,22,13.83,42.67,22.17,6.34,2.57,9.29,4,10.48,5.15,2.1,2,8.06,5.72,15.5,9.63,6.53,3.43,6,3.91-1.43,1.38a27.66,27.66,0,0,0-5-1.43,45.84,45.84,0,0,0,5.72,3l5.91,2.82,1.48-.91a5.81,5.81,0,0,1,2.29-.91c1.14,0,7.44,3.25,7.44,3.87,0,.28-.29.42-.62.28a27.52,27.52,0,0,0-3.48-.57l-2.82-.29,1.19,1c1.53,1.24,5.2,2.38,8.54,2.67l2.67.24-2-.91c-2.43-1.1-2.76-1.62-2-2.86s.05-2.05-3.38-3.67c-1.48-.72-2.44-1.38-2.15-1.48,1.53-.52,14.64,3.81,17.69,5.86.66.39,1,1.05.9,1.39-.33.9,3.72,2.38,10.44,3.86,2.91.62,7.2,1.57,9.54,2.1a40.82,40.82,0,0,1,7.67,2.62,12.75,12.75,0,0,0,6.2,1.71c3.58.1,8.39-.9,8.15-1.62-.09-.33-1.67-1.05-3.48-1.62-2.24-.67-2.86-1.05-2-1.05.71,0,1.28-.28,1.28-.52,0-.57-3.19-.62-3.43,0,0,.24-2.38-.33-5.15-1.19-5.81-1.86-5.29-1.76-5.14-1,.23,1.19-9.06.19-13-1.38-.53-.19-.38-.38.48-.62s.71-.43-1.67-.91c-4.82-1-10.78-2.91-11-3.62-.14-.38-1.47-.91-2.95-1.19s-5-1.19-7.72-2-5.39-1.58-5.82-1.67c-1.19-.34-1-1.1.24-1.15.57,0-.81-.62-3-1.38a80.44,80.44,0,0,1-8.82-3.72c-4.72-2.38-13.16-7.67-13.73-8.63a.93.93,0,0,0-1-.24c-1.39.53-7.39-4-7.39-5.53a1.43,1.43,0,0,0-1-1.19c-1.28-.43-5.81-3.81-13.11-9.77-5.43-4.48-11.1-8.58-11.91-8.58-.15,0-3.53-1.53-7.54-3.39A265.69,265.69,0,0,1,441,797.74C435.12,794.21,434.21,793.78,436,795.4Z" transform="translate(-228 -299)"/><path class="cls-3" d="M846.72,834.68c-2.52,2.77-4.19,4-3.33,2.44.81-1.39-1.29,1.14-3.44,4.19-2.76,4-2.19,3.58,5.2-3.34,2.81-2.62,5.1-5,5.1-5.34C850.25,831.35,849.39,831.82,846.72,834.68Z" transform="translate(-228 -299)"/><path class="cls-3" d="M477.21,834.83l-1.43.28,1.91,1.43a52,52,0,0,1,4.15,3.67,23.87,23.87,0,0,0,5.24,3.63c1.67.81,4.72,2.24,6.82,3.24s3.53,1.86,3.19,2a4.77,4.77,0,0,1-2-.38c-3.43-1.43-1.33.19,5.15,3.91,11.87,6.91,17.21,9.25,18.36,8.1.61-.62,4.29,1.1,7.05,3.25a15.89,15.89,0,0,0,4.82,2c1.76.42,6.05,1.9,9.53,3.24,18.78,7.15,21.93,8.1,23.79,7.1.57-.29,1-.62.86-.71s-3.05-.86-6.58-1.67c-8.82-2.15-8.68-2.1-8-3.58.86-1.86,0-2.24-5.39-2.38-6.43-.15-10.53-1.53-23.64-7.87-8.06-3.91-10.11-5.1-11.54-6.77a15.25,15.25,0,0,1-2.05-2.81c-.33-.91-10-5.77-13.25-6.67-2-.58-10.82-5.73-14.07-8.2A3.13,3.13,0,0,0,477.21,834.83Z" transform="translate(-228 -299)"/><path class="cls-3" d="M427.4,843.31a119.74,119.74,0,0,1,11.15,11.3c1.14,1.48,4.39,3.48,4.86,3a26.85,26.85,0,0,0-3-2.62,15.47,15.47,0,0,1-3-3c0-.24.47-.48,1-.57.9-.1.23-.86-3.91-4.58-2.72-2.43-5.2-4.34-5.49-4.24a6.19,6.19,0,0,1-2.48-1.15C423.3,839.21,423.63,839.93,427.4,843.31Z" transform="translate(-228 -299)"/><path class="cls-3" d="M834.23,844c-2.48,1.81-7.34,6.77-7.34,7.44a6.18,6.18,0,0,0,.76,2c.86,1.66,1.34,1.47,3.63-1.67,1.71-2.34,1.76-3.34.14-3.05-.67.14-1.19.09-1.19-.15,0-.47,2.33-2.14,3.57-2.52,1-.29,3-3.15,2.24-3.15A6.14,6.14,0,0,0,834.23,844Z" transform="translate(-228 -299)"/><path class="cls-3" d="M489.46,850.23a28.24,28.24,0,0,0,4.3,2.67c2.67,1.43,2.86,1.47,1.57.38a27,27,0,0,0-4.29-2.72C488.61,849.32,488.37,849.27,489.46,850.23Z" transform="translate(-228 -299)"/><path class="cls-3" d="M445.13,859.28a14.1,14.1,0,0,0,3,2.72c1.47,1.1,4.76,4,7.29,6.29,2.86,2.67,4.72,4.1,4.91,3.77.48-.76,3,.62,11.15,6,3.72,2.43,9.49,5.86,12.92,7.67,4.58,2.39,5.92,3.29,5.3,3.53s.33.86,3.71,2.29a33.16,33.16,0,0,0,5.53,2,65.81,65.81,0,0,1,8.49,3.72c4.19,2.1,9.44,4.48,11.63,5.34s4.82,1.95,5.87,2.38c3.71,1.62,22.54,7.68,31.08,10,20.21,5.49,44.57,9.4,63.78,10.25l11.45.53c5.72.24,6.24-.43.71-1a15.82,15.82,0,0,1-3.86-.76c-.38-.24-.43-.43-.19-.43,1.33,0-1.19-1-2.67-1-2.91,0-6.15-.57-6.15-1.09,0-.29,2.33-.39,6.67-.19,3.86.14,6.68,0,6.68-.2a.42.42,0,0,0-.43-.42,6.62,6.62,0,0,1-1.91-1.24c-2.19-1.86-7.15-2.05-15.35-.67a48.18,48.18,0,0,1-11.06.86,22.8,22.8,0,0,1-5-.58c-.19-.14.1-.57.57-.95.86-.62.82-.71-1-1.19-1-.29-3.57-.76-5.62-1a45.54,45.54,0,0,1-7.63-1.72c-3-.9-4.48-1.14-6.34-.95-2.15.24-2.53.14-2.72-.67-.19-.66-.67-.9-1.86-.9-1.91,0-16.35-2.91-21.36-4.29L543,904.72c-3.43-.91-9.63-3-13.82-4.58-7.35-2.81-10.25-4.1-8.11-3.58.53.1,1.91.38,3.1.53,3.81.57,1.53-.57-4.24-2.15-6.44-1.71-7.49-2.19-6.77-3.05.43-.48-.81-1-5.58-2.67-3.34-1.14-9.06-3.19-12.68-4.62s-6.77-2.43-6.91-2.24.57,1,1.62,1.9,1.71,1.62,1.48,1.62c-1.39,0-12.64-7.34-12.07-7.91a5,5,0,0,1,2.2.57c1.09.43,2.14.67,2.29.48.52-.52-.1-.76-5.34-2.19-3.67-1-5.49-1.72-6.39-2.58-2.72-2.71.33-2,10.15,2.39,10.35,4.67,7.53,2.38-3.95-3.2-3.77-1.81-8.35-4.29-10.11-5.43a14.41,14.41,0,0,0-3.29-1.86,19.86,19.86,0,0,0,2.19,2.57c1.77,1.86,2.05,2.39,1.34,2.39-1.24,0-3.34-1.34-10-6.39s-7.48-5.67-6.48-4.44c1.19,1.53,0,1.48-3.1,0C445.13,858.52,444.89,858.47,445.13,859.28Z" transform="translate(-228 -299)"/><path class="cls-3" d="M540.38,861.48c0,.57,4.39,1.52,6.82,1.52,2.71,0,1.66-.71-2.1-1.33S540.38,861,540.38,861.48Z" transform="translate(-228 -299)"/><path class="cls-3" d="M817.45,862.57c-2,1.48-2.48,2.39-.71,1.48.85-.48,3.33-3,3-3A14.43,14.43,0,0,0,817.45,862.57Z" transform="translate(-228 -299)"/><path class="cls-3" d="M540.76,865.72a1,1,0,0,0,.91-.05c.19-.14-.1-.28-.62-.24S540.38,865.58,540.76,865.72Z" transform="translate(-228 -299)"/><path class="cls-3" d="M543.14,866.2a1,1,0,0,0,.91-.05c.19-.14-.1-.29-.62-.24S542.76,866.05,543.14,866.2Z" transform="translate(-228 -299)"/><path class="cls-3" d="M601.4,872.58c-.52.39-.57.58-.1.77,1,.38.1,1.09-1.47,1.09-1.91,0-.91.67,1.71,1.15,1.86.33,2.29.95,1,1.43-.95.38-6.81.38-8.72,0s-1.48-1.15.48-1.15c.9,0,1.33-.19,1.14-.52-.48-.72-5.48-.33-6,.48-.24.47-2,.81-5.91,1.14-3.05.29-5.53.62-5.53.81a20.57,20.57,0,0,0,4.43,1.14c12.35,2.39,17.79,3.2,24.41,3.44,7,.28,7.2.28,8.82-.86s1.67-1.24,1.57-4.2a9.22,9.22,0,0,0-.47-3.38c-.43-.43-10.68-1.86-13.16-1.86A4.62,4.62,0,0,0,601.4,872.58Z" transform="translate(-228 -299)"/><path class="cls-3" d="M786.61,881.55c-.29.23-2.05,1.28-4,2.33-3.53,1.86-3.86,2.48-1.43,2.48,1.62,0,3.77-.86,6.53-2.57,1.91-1.24,2-1.34,1.15-2C787.89,881,787.23,881,786.61,881.55Z" transform="translate(-228 -299)"/><path class="cls-3" d="M775.17,886.36c-1.62,1.72-1.48,1.72,1.47.43,1.77-.71,2.15-1,1.63-1.38C777.12,884.69,776.64,884.84,775.17,886.36Z" transform="translate(-228 -299)"/><path class="cls-3" d="M770.69,889.27c-1.15.52-2,1.05-1.86,1.19.47.43,2.67-.33,3.52-1.29S773.35,888.08,770.69,889.27Z" transform="translate(-228 -299)"/><path class="cls-3" d="M668,893.75c-3.29.72-3.67,1-2,1.38,1.29.34,5.68-.85,6.15-1.67C672.58,892.89,671.48,893,668,893.75Z" transform="translate(-228 -299)"/><path class="cls-3" d="M739.75,901.14c-6.63,2.34-13.26,4.77-14.74,5.43a13.46,13.46,0,0,1-3.81,1.24c-1.14,0-7.53,3.25-7.15,3.63a5.83,5.83,0,0,0,2.29-.24c6.34-1.48,1.95.81-5.87,3.1-7.43,2.1-16.39,4-21.16,4.29l-3.77.24,5.48-2c8.3-3,9.16-3.19,13.69-4.1,3.86-.71,6.19-1.62,4.33-1.62a1,1,0,0,1-.95-.52c-.14-.38-2.05-.1-6.1.9-10.92,2.72-22.31,4.53-42.57,6.77-7.06.81-13.11,1.43-13.49,1.43s-.58.19-.43.48a3.36,3.36,0,0,0,2,.48c3.1,0,1,.81-4.44,1.66a41.63,41.63,0,0,0-6.15,1.29c-1.76,1,0,1.24,4.25.62a48.31,48.31,0,0,1,6.91-.38,43.58,43.58,0,0,0,6.43-.24l3.82-.38-1.91-1-1.91-.91,4.72-.14c3.44-.1,5.25.09,6.58.62,2.53,1,7.06.9,13.92-.29,3.2-.52,7.15-1.14,8.87-1.38,12.06-1.53,40.57-9.77,58.78-17,9.3-3.72,11-5,6.72-5-1.76,0-2.14-.14-1.9-.72.14-.38.09-.71-.1-.71S746.37,898.8,739.75,901.14Z" transform="translate(-228 -299)"/><path class="cls-3" d="M626.19,914.49c0,.57.38.57,1.67,0,.86-.38.81-.43-.34-.43C626.76,914,626.19,914.2,626.19,914.49Z" transform="translate(-228 -299)"/><image class="cls-4" width="780" height="605" xlink:href="logo32.png"/><image class="cls-5" width="763" height="610" transform="translate(12.99 5.99)" xlink:href="logo33.png"/><text class="cls-6" transform="translate(63.62 473.76)">KZ</text></g></g></svg>